<?xml version="1.0" encoding="utf-8"?>
<!-- Generator: Adobe Illustrator 24.3.0, SVG Export Plug-In . SVG Version: 6.00 Build 0)  -->
<svg version="1.1" id="fa60aa3c-ac5a-409e-a10f-995c3361be0f"
	 xmlns="http://www.w3.org/2000/svg" xmlns:xlink="http://www.w3.org/1999/xlink" x="0px" y="0px" viewBox="0 0 1082.1 786.3"
	 style="enable-background:new 0 0 1082.1 786.3;" xml:space="preserve">
<style type="text/css">
	.st0{opacity:0.1;fill:#A466FF;enable-background:new    ;}
	.st1{fill:#A466FF;}
	.st2{opacity:0.1;enable-background:new    ;}
	.st3{fill:#FFD037;}
	.st4{fill:#A8A8A8;}
	.st5{opacity:0.2;enable-background:new    ;}
	.st6{opacity:0.8;}
	.st7{fill:#E74D89;}
	.st8{fill:#B2215A;}
	.st9{fill:url(#SVGID_1_);}
	.st10{fill:#925978;}
	.st11{fill:#FF6484;}
	.st12{fill:#575988;}
	.st13{fill:#FFC5CB;}
	.st14{fill:#E8F4FF;}
	.st15{opacity:0.1;fill:#FFFFFF;enable-background:new    ;}
	.st16{opacity:0.1;}
	.st17{fill:#1769FF;}
	.st18{fill:#FFFFFF;}
	.st19{fill:#B3BBC6;}
	.st20{fill:#666C76;}
	.st21{fill:url(#SVGID_2_);}
	.st22{fill:#FFAAB0;}
	.st23{fill:#DCE6F2;}
	.st24{fill:#F1FAFF;}
	.st25{fill:#794F6A;}
	.st26{fill:#61BEEC;}
	.st27{fill:#4064AC;}
	.st28{fill:#D4DFEC;}
</style>
<path class="st0" d="M345.5,29.7c29.2-26,75.1-31.3,116.8-29.3C593.4,6.9,711.7,70.2,814,141.8c37.1,25.9,73.5,53.8,97.6,89.5
	c49,72.6,34.4,173.3-33.6,233.1c-23.2,20.4-51.2,36-80.1,49.8c-51.3,24.6-106.6,44.4-164.7,50c-41.5,4-83.5,0.8-124.7-4.8
	c-115.2-15.6-228.3-50.2-323.1-109.3C143.7,424.2,104.5,392,87.4,350s-6.2-95.1,36.3-119.9c17.6-10.3,38.6-14.9,59.1-19.3
	c30.3-6.4,61-12.7,88.3-25.8c28.2-13.5,61.6-39.5,56-69.3C321.1,83.7,316.3,55.7,345.5,29.7z"/>
<ellipse class="st0" cx="850.4" cy="708" rx="109.5" ry="7"/>
<ellipse class="st0" cx="565.9" cy="661" rx="109.5" ry="7"/>
<ellipse class="st0" cx="164.1" cy="772.4" rx="109.5" ry="7"/>
<ellipse class="st0" cx="372.1" cy="783.4" rx="45" ry="2.9"/>
<ellipse class="st0" cx="1047" cy="709" rx="35.1" ry="2.2"/>
<ellipse class="st0" cx="724.8" cy="662.1" rx="29.8" ry="1.9"/>
<path class="st1" d="M1052.1,655c0,0,4.7,6.2-2.2,15.4s-12.5,17.1-10.2,22.9c0,0,10.4-17.2,18.8-17.5S1061.3,665.4,1052.1,655z"/>
<path class="st2" d="M1052.1,655c0.4,0.6,0.8,1.2,1,1.9c8.2,9.7,12.6,18.7,4.7,18.9c-7.4,0.2-16.2,13.4-18.3,16.7
	c0.1,0.3,0.2,0.5,0.2,0.8c0,0,10.4-17.2,18.8-17.5S1061.3,665.4,1052.1,655z"/>
<path class="st3" d="M1060.8,662.8c0,2.2-0.2,3.9-0.5,3.9s-0.5-1.8-0.5-3.9s0.3-1.1,0.6-1.1S1060.8,660.7,1060.8,662.8z"/>
<path class="st3" d="M1063.8,665.4c-1.9,1-3.6,1.7-3.7,1.4s1.3-1.3,3.2-2.4s1.2-0.3,1.3,0S1065.7,664.4,1063.8,665.4z"/>
<path class="st1" d="M1027.2,655c0,0-4.7,6.2,2.2,15.4c6.9,9.3,12.5,17.1,10.2,22.9c0,0-10.4-17.2-18.8-17.5
	C1012.4,675.6,1018,665.4,1027.2,655z"/>
<path class="st2" d="M1027.2,655c-0.4,0.6-0.8,1.2-1,1.9c-8.2,9.7-12.6,18.7-4.7,18.9c7.4,0.2,16.2,13.4,18.3,16.7
	c-0.1,0.3-0.2,0.5-0.2,0.8c0,0-10.4-17.2-18.8-17.5C1012.4,675.6,1018,665.4,1027.2,655z"/>
<path class="st3" d="M1018.5,662.8c0,2.2,0.2,3.9,0.5,3.9s0.6-1.8,0.6-3.9s-0.3-1.1-0.6-1.1S1018.5,660.7,1018.5,662.8z"/>
<path class="st3" d="M1015.5,665.4c1.9,1,3.6,1.7,3.7,1.4s-1.3-1.3-3.2-2.4s-1.2-0.3-1.3,0S1013.6,664.4,1015.5,665.4z"/>
<path class="st4" d="M1020,692.5c0,0,13.1-0.4,17.1-3.2s20.2-6.2,21.2-1.7s19.7,22.5,4.9,22.6s-34.5-2.3-38.4-4.7
	C1020.9,703.1,1020,692.5,1020,692.5z"/>
<path class="st5" d="M1063.5,708.7c-14.8,0.1-34.5-2.3-38.4-4.7c-3-1.8-4.2-8.4-4.6-11.5h-0.4c0,0,0.8,10.6,4.8,13
	c4,2.4,23.6,4.8,38.4,4.7c4.3,0,5.8-1.5,5.7-3.8C1068.3,707.8,1066.7,708.6,1063.5,708.7z"/>
<path class="st1" d="M730.1,615.9c0,0,4,5.2-1.9,13.2s-10.7,14.6-8.8,19.6c0,0,8.9-14.7,16.1-15S738,624.8,730.1,615.9z"/>
<path class="st2" d="M730.1,615.9c0.3,0.5,0.6,1.1,0.8,1.7c7,8.3,10.8,16,4,16.2c-6.3,0.2-13.9,11.5-15.7,14.3
	c0.1,0.2,0.1,0.4,0.2,0.6c0,0,8.9-14.7,16.1-15S738,624.8,730.1,615.9z"/>
<path class="st3" d="M737.6,622.6c0,1.8-0.2,3.3-0.5,3.3s-0.5-1.5-0.5-3.3s0.3-1,0.5-1S737.6,620.8,737.6,622.6z"/>
<path class="st3" d="M740.2,624.8c-1.6,0.9-3,1.4-3.2,1.2s1.1-1.1,2.7-2s1-0.2,1.1,0S741.8,624,740.2,624.8z"/>
<path class="st1" d="M708.9,615.9c0,0-4,5.2,1.8,13.2s10.7,14.6,8.8,19.6c0,0-8.9-14.7-16.1-15S701,624.8,708.9,615.9z"/>
<path class="st2" d="M708.9,615.9c-0.4,0.5-0.6,1.1-0.8,1.7c-7,8.3-10.8,16-4,16.2c6.3,0.2,13.9,11.5,15.7,14.3
	c-0.1,0.2-0.1,0.4-0.2,0.6c0,0-8.9-14.7-16.1-15S701,624.8,708.9,615.9z"/>
<path class="st3" d="M701.4,622.6c0,1.8,0.2,3.3,0.5,3.3s0.5-1.5,0.5-3.3s-0.3-1-0.5-1S701.4,620.8,701.4,622.6z"/>
<path class="st3" d="M698.8,624.8c1.6,0.9,3,1.4,3.2,1.2s-1.1-1.1-2.7-2s-1-0.2-1.1,0S697.2,624,698.8,624.8z"/>
<path class="st4" d="M702.7,648c0,0,11.2-0.3,14.6-2.8s17.3-5.3,18.1-1.4s16.9,19.2,4.2,19.3s-29.5-2-32.9-4S702.7,648,702.7,648z"
	/>
<path class="st5" d="M739.9,661.8c-12.7,0.1-29.5-2-32.9-4c-2.6-1.6-3.6-7.2-3.9-9.8h-0.4c0,0,0.7,9.1,4.1,11.1s20.2,4.1,32.9,4
	c3.7,0,4.9-1.3,4.9-3.3C744,661.1,742.6,661.8,739.9,661.8z"/>
<g class="st6">
	<path class="st7" d="M147.8,621.8c41.3,0,74.8,33.5,74.7,74.8s-33.5,74.8-74.8,74.8c-41.3,0-74.7-33.5-74.8-74.8
		c0-41.3,33.4-74.8,74.7-74.8C147.7,621.8,147.7,621.8,147.8,621.8z"/>
	<path class="st8" d="M147.8,776.7c-44.2,0-80.1-36-80-80.2c0-44.2,36-80.1,80.2-80c44.2,0,80,35.9,80,80.1
		C227.9,740.8,192,776.6,147.8,776.7z M215.4,707.5c-13.8-4-28.4-5.1-42.7-3c5.8,15.9,10.3,32.2,13.3,48.8
		C201.8,742.8,212.4,726.2,215.4,707.5z M174.5,759.6c-3.2-17.7-8.1-35.1-14.6-51.9c-0.1,0.1-0.3,0.1-0.4,0.1
		c-38.7,13.5-52.5,40.2-53.8,42.7c12,9.4,26.8,14.4,42,14.4C156.9,765.1,166,763.2,174.5,759.6L174.5,759.6z M96.9,742.4
		c1.6-2.6,20.4-33.7,55.7-45.2c0.9-0.3,1.8-0.6,2.7-0.8c-1.7-3.9-3.6-7.8-5.6-11.6c-34.2,10.2-67.4,9.8-70.4,9.7
		c0,0.7-0.1,1.4-0.1,2.1C79.3,713.5,85.6,729.8,96.9,742.4z M80.7,682.6c21.4-0.1,42.6-2.9,63.3-8.3c-7.7-13.6-16.2-26.8-25.4-39.5
		C99.2,643.9,85.2,661.6,80.7,682.6L80.7,682.6z M131.7,630.1c9.4,12.8,17.9,26.1,25.6,40c24.4-9.1,34.6-22.9,35.9-24.7
		c-12.5-11.1-28.7-17.3-45.4-17.2C142.4,628.2,137,628.9,131.7,630.1L131.7,630.1z M200.8,653.3c-1.4,2-12.9,16.7-38.2,27
		c1.6,3.3,3.1,6.6,4.6,9.9c0.5,1.2,1,2.4,1.5,3.5c22.8-2.9,45.4,1.8,47.7,2.2C216.2,680.4,210.7,665.3,200.8,653.3L200.8,653.3z"/>
</g>
<linearGradient id="SVGID_1_" gradientUnits="userSpaceOnUse" x1="293.603" y1="-44.6523" x2="293.603" y2="488.6082" gradientTransform="matrix(1 0 0 -1 -58.95 729.14)">
	<stop  offset="0" style="stop-color:#808080;stop-opacity:0.25"/>
	<stop  offset="0.54" style="stop-color:#808080;stop-opacity:0.12"/>
	<stop  offset="1" style="stop-color:#808080;stop-opacity:0.1"/>
</linearGradient>
<path class="st9" d="M333.2,468.3c-1.8-2.3-3.9-17.9-3.9-17.9l-8-39.8l-4.1-22.9c0,0-1-29-19.1-43.3l-1.4-1.1c0-0.3,0-0.5,0-0.8l0,0
	l0,0c-0.2-2.8-0.8-5.5-1.8-8.1c-0.4-0.8-0.7-1.8-0.6-2.7c0-0.4,0.2-0.7,0.4-1.1l0,0c0.8-1.2,2-2.1,3.3-2.7c3.3-2,6.1-5.1,6.9-8.9
	c0-0.1,0-0.2,0-0.2c0-0.2,0-0.3,0.1-0.5c0.1-0.2,0-0.2,0-0.3c0-0.2,0-0.3,0-0.5v-0.2c0-0.2,0-0.4,0-0.6c0,0,0-0.1,0-0.1
	c0-0.2,0-0.5-0.1-0.7v0l0,0c-0.4-2.8-2.1-5.1-4.6-6.3c0.9-0.2,1.7-0.9,2-1.7l0,0c0.1-0.2,0.2-0.5,0.3-0.8l0,0
	c0.1-0.2,0.1-0.5,0.1-0.8c0,0,0-0.1,0-0.1c0-0.2,0-0.4,0-0.7c0-0.1,0-0.1,0-0.2c0-0.2-0.1-0.4-0.1-0.6c0-0.1,0-0.1,0-0.2l-0.1-0.1
	l0,0c-0.7-1.9-2.3-3.4-3.6-4.9c-7.9-8.8-9.4-21.3-11.6-32.8c-1.2-6.4-3.4-13.7-9.6-16.1c-1.8-0.6-3.5-1-5.3-1.4
	c-5.5-1.5-10-5.3-15.4-7.2c-3.6-1.2-7.5-1.6-11.3-1c-2.9,0.5-5.3,1.9-8.1,2.6c-6,1.5-13.3-0.2-18,4.7c-3.3,3.4-3.6,8.5-5.2,12.9
	c-3.1,8.2-11.1,14.1-13.1,22.5c-1.3,5.5,0,11,1.5,16.5c1.1,3.7,1.8,7.5,2.2,11.3c0.1,1,0.1,1.9,0,2.9c-0.2,2.8-0.9,5.6-1.9,8.2
	c-6.8,2.5-13.8,5.5-14.3,7.1c-1,3.3-17.3,12.6-17.3,12.6s-6.2,5.3-6.2,7.3c0,2-2.1,8.3-3.4,8.3s-3.9,25.4-3.9,25.4v26.4
	c0,0-9.6,31.2-11.8,58.9c0,0-3.9,17.7,2.4,27.8c0.8,1.4,1.9,2.6,3.1,3.6l3.2,8.4c1.1-1.9,2.6-3.6,4.3-5c0.2,1,0.3,2.3,0.6,3.7
	c0.3,1.7,0.6,3.7,1,5.8c-2,3.1-6.8,9.7-12.6,12.1c-5.4,2.3,1.6,8.2,6.4,11.7c-1.3,6.4-3.1,14.2-4.6,15.2
	c-2.6,1.8-10.9,23.9-10.9,23.9s-16.3,38,7.1,42.3s35.3-5.8,35.3-5.8h5.6c0,0,6.8-3.8,7-11.8c3.8-3.1,9.7-8.1,10.9-10.1
	s-2.1-8.5-4.2-12.1l0.5-1c0,0,22.2-28.5,25.1-25.4s4.6,7.8,3.4,10.8l1.2,17.4v27.2c0,0-3.2,12.3,0,13.6s0,6,0,6s1.2,5.5,1.4,7.3
	c0.1,2.3,0.1,4.5,0,6.8l-1.1,27.2l-2.1,40.3c0,0-2.3,3.3-0.5,5.5s1,7.6,0.5,8.6s-0.8,9.3-0.8,9.3s-7.5,7.8-1.5,9.8l0.2,0.1
	c-2.5,2.3-2.5,7.4-2.3,9s-1.6,8-2.9,11.6c-0.3,0.9-0.7,1.8-1.2,2.6c-0.9,0.6,0,7.7,0,7.7s29.1,2.4,31.5,0c1-0.9,0.8-3.2,0-5.8
	c-1.1-3.8-2.6-7.5-4.4-11c-1.7-3.1-0.9-7.2-0.9-7.2v-3c2,0.3,3.2,0.5,3.2,0.5s3.6-3,2.1-5.8s2.8-18.4,2.8-18.4s4.9-17.6,4.9-19.4
	s6.5-24.7,6.5-24.7s9.6-40.5,4.9-59.7c0,0,4.1-4.8,3.6-6s-1.7-6.5,0-8.8s9.3-30.5,11.3-35.2c1-2.2,3.3-8.3,5.6-14.3
	c10.3-1.5,22.5-4.4,22.5-4.4s-1.8-7.8-3.2-15.8l1.1-5.5l0.4-1.9c0.9,0.9,1.7,1.9,2.5,3l2.1-10.1c0,0,0.2-0.3,0.6-1
	c2.4-3.8,11.2-17.3,15.4-21.4C338.1,492.2,335,470.6,333.2,468.3z"/>
<rect x="242" y="299.8" class="st10" width="28.5" height="32"/>
<rect x="242" y="299.8" class="st2" width="28.5" height="32"/>
<path class="st11" d="M200.3,575.6c0,0,7.2,11.5,5.5,14.5s-13.7,12.8-13.7,12.8l-3.5-24L200.3,575.6z"/>
<path class="st12" d="M177.8,612.6l5.3-0.8h5.4c0,0,7.2-4.1,6.8-12.8s0-17,0-17L177.8,612.6z"/>
<path class="st2" d="M177.8,612.6l5.3-0.8h5.4c0,0,7.2-4.1,6.8-12.8s0-17,0-17L177.8,612.6z"/>
<path class="st12" d="M188.5,495.3l-30,33c0,0-3.5,21.8-6,23.5s-10.4,23.8-10.4,23.8s-15.7,37.8,6.9,42s34.1-5.8,34.1-5.8l19.2-34.8
	c0,0,21.5-28.2,24.3-25.2s4.5,7.8,3.2,10.8l1.2,17.2v27c0,0-3.1,12.2,0,13.5s0,6,0,6s1.2,5.5,1.4,7.2s0,6.8,0,6.8l-1,27l-2,40
	c0,0-2.2,3.2-0.5,5.5s1,7.5,0.5,8.5s-0.8,9.2-0.8,9.2s-7.2,7.8-1.5,9.8s22.5,4.5,22.5,4.5s3.5-3,2-5.8s2.8-18.2,2.8-18.2
	s4.7-17.5,4.7-19.2s6.2-24.5,6.2-24.5s9.2-40.2,4.8-59.2c0,0,4-4.8,3.5-6s-1.7-6.5,0-8.8s9-30.2,11-35s10.5-27.8,10.5-27.8v-42.5
	L188.5,495.3z"/>
<path class="st13" d="M278,344.6l-17.3,32.6l-4.5,8.6l-0.7,1.3l-44.5,1.8c0,0-1.3-2.8-3.1-7.2c-3.1-7.5-7.8-19.8-10.2-30.1
	c-0.6-2.5-1-5-1.3-7.5c-0.7-6.2,0.3-10.7,4.3-11.1c1-0.1,2,0,3,0.3c2.8,0.8,5.7,1.1,8.6,0.8c10.6-1.3,13.6-12.4,14.2-22.9
	c0-0.7,0.1-1.5,0.1-2.2c0-2.3,0-4.5-0.1-6.5c-0.2-3.4-0.6-6.8-1.2-10.2c2.6-1.3,5.4-2.3,8.3-3c8.4-2.2,20.3-2.1,20.5,15.3
	c0,3.9,0.4,7.7,1.1,11.5c0.5,2.2,1.2,4.2,2.1,6.2c2.9,5.6,7,6.2,8.9,6.2c0.4,0,0.7,0,1-0.1L278,344.6z"/>
<path class="st2" d="M233.6,363.5c0.6,1.8,0.9,3.6,0.9,5.5c0.2,2,0.1,4-0.1,5.9c-0.3,2-1.3,3.8-2.8,5.1"/>
<circle class="st2" cx="246.2" cy="291.9" r="26.8"/>
<path class="st13" d="M273,290.8c0,14.8-12,26.7-26.7,26.8c-7.4,0-14.6-3.1-19.6-8.6c-0.2-0.2-0.5-0.5-0.7-0.8
	c-9.6-11.2-8.4-28.1,2.8-37.7c11.2-9.6,28.1-8.4,37.7,2.8C270.7,278.2,273,284.4,273,290.8L273,290.8z"/>
<path class="st2" d="M203.3,357.6c0,0,9.5,24.8,29.5,20.8c0,0,20.2,1.6,31.7-13.2c11.6-14.8,12.2,85,12.2,85l-4.5,66.2
	c0,0-32.2,19.2-46.2,16.8s-20.8-10-20.8-10s-14.8-13.8-18.8-15.5s1.8-87,1.8-87l4.8-32L203.3,357.6z"/>
<path class="st14" d="M203.3,355.6c0,0,9.5,24.8,29.5,20.8c0,0,20.2,1.6,31.7-13.2c11.6-14.8,12.2,85,12.2,85l-4.5,66.2
	c0,0-32.2,19.2-46.2,16.8s-20.8-10-20.8-10s-14.8-13.8-18.8-15.5s1.8-87,1.8-87l4.8-32L203.3,355.6z"/>
<path class="st2" d="M202.3,495.3c0,0,21.5,24,20.2,26.5S201.8,502.6,202.3,495.3z"/>
<path class="st2" d="M198.6,435.7c0,0,6.9,9.6,11.2,8.6"/>
<path class="st2" d="M213.4,333.3c0,0,0,0.3-0.1,0.8c-0.2,3.1-1.1,14.2-2.2,26.6c-0.6,7-1.4,14.3-2.1,20.9
	c-1.2,10.7-2.6,19.2-3.7,20.4c-3.2,3.5-2,36.5-2,36.5v41.8c0,0-2.7,13.2-5,16.2s-7.8,14.2-12.2,15.8c-1.6,0.9-3,2-4.1,3.3
	c-4,4-9.7,10.7-14,15.9c-3.6,4.4-6.2,7.8-6.2,7.8s-17.5-11-10-14.2c5.6-2.4,10.2-8.9,12.2-12c0.7-1,1-1.7,1-1.7
	c0.4-2.3,0.9-4.6,1.6-6.9c0.6-2.1,1.6-4.1,2.8-6c0.9-1.5,2.4-2.7,4.1-3.1c6.5-1.2,9.8-63,9.8-63l-20-43.6l-2-4.4
	c0,0,2.5-25.2,3.8-25.2s3.2-6.2,3.2-8.2s6-7.2,6-7.2s15.9-9.3,16.9-12.5c0.5-1.7,7.8-4.8,14.6-7.3c6.1-2.3,11.8-4.1,11.8-4.1
	C220.7,324.7,213.4,333.3,213.4,333.3z"/>
<path class="st11" d="M212.4,333.3c0,0,0,0.3-0.1,0.8c-0.2,3.1-1.1,14.2-2.2,26.6c-0.6,7-1.4,14.3-2.1,20.9
	c-1.2,10.7-2.6,19.2-3.7,20.4c-3.2,3.5-2,36.5-2,36.5v41.8c0,0-2.7,13.2-5,16.2s-7.8,14.2-12.2,15.8c-1.6,0.9-3,2-4.1,3.3
	c-4,4-9.7,10.7-14,15.9c-3.6,4.4-6.2,7.8-6.2,7.8s-17.5-11-10-14.2c5.6-2.4,10.2-8.9,12.2-12c0.7-1,1-1.7,1-1.7
	c0.4-2.3,0.9-4.6,1.6-6.9c0.6-2.1,1.6-4.1,2.8-6c0.9-1.5,2.4-2.7,4.1-3.1c6.5-1.2,9.8-63,9.8-63l-20-43.6l-2-4.4
	c0,0,2.5-25.2,3.8-25.2s3.2-6.2,3.2-8.2s6-7.2,6-7.2s15.9-9.3,16.9-12.5c0.5-1.7,7.8-4.8,14.6-7.3c6.1-2.3,11.8-4.1,11.8-4.1
	C219.7,324.7,212.4,333.3,212.4,333.3z"/>
<path class="st2" d="M311.9,390.8l-21.6,25.3c0,0,18.8,97.2,16.5,101.8c-0.2,0.4-0.3,0.8-0.3,1.2c-0.2,2.3-0.2,4.7,0.1,7
	c0.3,2.5,0.7,5.2,1.1,7.9c1.3,7.9,3.1,15.6,3.1,15.6s-25.2,6-33,5.2s-3.2-13.2-2-19s-8.5-13.8-8.5-13.8l-13.7-56.5
	c0,0-1-12.5-4-18.5s-0.2-12.5-1.2-21c-0.7-6.1,3.6-27.7,6.9-40.3c1.2-4.8,2.3-8.3,3-9.1c0,0,0.1-0.1,0.1-0.1c2-1.8,0-12,0-12
	s4.8-27,4.2-29.2c-0.3-1.3,1.3-4.4,2.7-6.9c1.1-1.9,2-3.4,2-3.4s9.7,6.1,26.2,19.5l1.5,1.2c17.5,14.2,18.5,43,18.5,43L311.9,390.8z"
	/>
<path class="st11" d="M312.9,390.8l-21.6,25.3c0,0,18.8,97.2,16.5,101.8c-0.2,0.4-0.3,0.8-0.3,1.2c-0.2,2.3-0.2,4.7,0.1,7
	c0.3,2.5,0.7,5.2,1.1,7.9c1.3,7.9,3.1,15.6,3.1,15.6s-25.2,6-33,5.2s-3.2-13.2-2-19s-8.5-13.8-8.5-13.8l-13.7-56.5
	c0,0-1-12.5-4-18.5s-0.2-12.5-1.2-21c-0.7-6.1,3.6-27.7,6.9-40.3c1.2-4.8,2.4-8.3,3-9.1c0,0,0.1-0.1,0.1-0.1c2-1.8,0-12,0-12
	s4.8-27,4.2-29.2c-0.3-1.3,1.3-4.4,2.7-6.9c1.1-1.9,2-3.4,2-3.4s9.7,6.1,26.2,19.5l1.5,1.2c17.5,14.2,18.5,43,18.5,43L312.9,390.8z"
	/>
<path class="st2" d="M267.3,404.3c-0.2,2,6,108.2,12.5,114.5L267.3,404.3z"/>
<path class="st13" d="M183,552.1c-7,4.4-12.3-7.2-16-20.5c-1.7-6.3-3-12.9-4-18.5c-0.4-2.1-0.7-4-0.9-5.7c-0.7-4.5-1-7.4-1-7.4
	l7.4-1.5l8.1-1.6l1,9.2l0.5,4.2c0,0,1.3,2.1,3,5.4C185.9,525.3,194.1,545.2,183,552.1z"/>
<path class="st13" d="M311.5,519.9l-1.8,8.6l-1.1,5.4l-0.1,0.3c0,0-21.9,29.6-28.9,17.4c-5.4-9.4,7.7-24.7,14.1-31.4
	c2-2.1,3.4-3.3,3.4-3.3l10.2,2.2L311.5,519.9z"/>
<path class="st11" d="M251.5,771.1c-2.4,2.4-30.5,0-30.5,0s-0.9-7,0-7.6c0.5-0.8,0.9-1.7,1.2-2.6c1.3-3.7,3-10,2.8-11.5
	c-0.2-2.1-0.1-10.6,5.6-10c0,0,7.5-15.2,15.8,3.5v4.5c-0.4,2.4-0.1,4.9,0.9,7.1c1.8,3.5,3.2,7.1,4.3,10.9
	C252.3,767.9,252.5,770.1,251.5,771.1z"/>
<path class="st14" d="M251.5,771.1c-2.4,2.4-30.5,0-30.5,0s-0.9-7,0-7.6c0.5-0.8,0.9-1.7,1.2-2.6c3.7-1.6,8.8-3.1,12.3-1.8
	c4.5,1.7,12.7,4.7,17,6.2C252.3,767.9,252.5,770.1,251.5,771.1z"/>
<path class="st2" d="M226.5,311.2c0.7,2.9,1.7,5.8,1.7,8.7c0.1,4-1.7,7.9-3.5,11.5c-2.1,4.1-4.5,8.5-3.8,13.1
	c0.4,1.7,0.9,3.4,1.5,5.1c1.6,5.4,1,11.1-1.4,16.1c-1.6,3.3-5,6.5-8.6,5.4c-0.3-3.5-0.7-7.4-2.4-10.4c-0.7-1.2-1.6-2.3-2.7-3.1
	c-2.6-2-6.2-2.4-8.5-4.7c-0.4-0.4-0.8-0.9-1.1-1.4c-1.1-1.9-1.6-4.2-1.4-6.4c0-0.3,0.1-0.7,0.1-1c0.5-2.4,1.3-4.8,2.4-7
	c0.6-1.3,1.3-2.7,1.9-4c1.5-3,2.8-6.1,3.8-9.3c6.1-2.3,11.8-4.1,11.8-4.1c3.3,5-3.9,13.7-3.9,13.7s0,0.3-0.1,0.8
	C222.9,332.9,226.1,321.7,226.5,311.2z"/>
<path class="st2" d="M241.5,273.6c-2.9,0.9-5.7,2.8-7,5.6c-1.4,3.1-0.7,6.7-1,10.1c-0.1,0.7-0.2,1.5-0.4,2.2
	c-1.2,4.2-5.1,7.1-6.7,11.1c-0.1,0.3-0.2,0.6-0.3,0.9c-0.4,1.6-0.5,3.2-0.2,4.8c-9.6-11.2-8.3-28.1,2.9-37.7
	c11.2-9.6,28.1-8.3,37.7,2.9c9.6,11.2,8.3,28.1-2.9,37.7c-1.2,1-2.5,1.9-3.8,2.7c1.1-3.4,2.3-6.7,3.2-10.2
	c2.2-8.1,2.5-17.4-2.6-24.1C256,273.9,248.5,271.6,241.5,273.6z"/>
<path class="st2" d="M293.8,354.6c-0.9,3.2-3.1,6.7-6.4,6.5c-1.6-0.1-3-1-4.6-1.2c-2.2-0.2-4.3,1.2-5.7,3c-1.2,1.9-2.3,3.9-3.2,5.9
	c-2.5,4.8-7.3,9.1-12.6,8.3l-0.5-0.1c-0.5-0.1-1.1-0.3-1.6-0.5c-4.8-2-7.3-8.1-7.2-13.6c0.2-6.2,2.8-12,3.6-18.2
	c0.8-5.7,0.1-11.4,0.7-17.1c0.2-1.9,0.5-3.7,1-5.6c2.9,5.6,7,6.2,8.9,6.2c1.1-1.9,2-3.4,2-3.4s9.7,6.1,26.2,19.5
	C294.9,347.9,294.6,351.3,293.8,354.6z"/>
<path class="st10" d="M256,243.9c5.2,1.9,9.6,5.7,14.9,7.1c1.7,0.3,3.5,0.8,5.2,1.3c6,2.4,8.2,9.6,9.3,16
	c2.1,11.5,3.6,23.8,11.2,32.6c1.4,1.6,2.9,3.1,3.6,5s-0.2,4.6-2.2,5c3.5,1.5,5.2,5.8,4.5,9.5s-3.4,6.8-6.6,8.8c-1.5,1-3.3,2-3.5,3.8
	c0,0.9,0.2,1.9,0.6,2.7c2.1,5.3,2.4,11.2,0.9,16.7c-0.9,3.2-3.1,6.7-6.4,6.5c-1.6-0.1-3-1-4.6-1.1c-2.2-0.2-4.3,1.2-5.7,3
	c-1.2,1.9-2.3,3.9-3.2,5.9c-2.5,4.8-7.3,9.1-12.6,8.3c-6.1-0.9-9.5-8-9.3-14.2c0.2-6.2,2.8-12,3.6-18.2c0.8-5.7,0.1-11.4,0.7-17.1
	c0.9-8.3,4.6-16,6.8-24.1s2.5-17.4-2.6-24.1c-4.5-5.7-12-8.1-19-6c-2.9,0.9-5.7,2.8-7,5.6c-1.7,3.8-0.2,8.3-1.4,12.2
	c-1.3,4.5-5.7,7.5-7,12c-1.5,5.4,2,10.9,2.1,16.5c0.1,4-1.7,7.9-3.5,11.5c-2.1,4.1-4.5,8.5-3.8,13.1c0.4,1.7,0.9,3.4,1.5,5.1
	c1.6,5.4,1.1,11.2-1.4,16.2c-1.6,3.3-5.1,6.5-8.6,5.4c-0.4-5-1.1-10.5-5-13.5c-2.6-2-6.2-2.4-8.6-4.7c-2-2.1-2.9-5-2.5-7.8
	c0.4-2.8,1.2-5.5,2.5-8.1c2.9-6.2,6.4-12.4,6.8-19.2c0.6-10.3-6-20.4-3.6-30.5c2-8.4,9.8-14.3,12.7-22.4c1.6-4.4,1.8-9.5,5-12.8
	c4.6-4.8,11.6-3.2,17.5-4.6c2.7-0.7,5-2.1,7.8-2.5C248.7,242.3,252.5,242.6,256,243.9z"/>
<path class="st2" d="M185.1,457.3c0,0,0,22.5,0,32.5c0,1.3,0,2.7-0.1,4.1c-0.3,9-1.7,18.4-1.7,18.4c-1.6-2.4-3.5-4.5-5.7-6.3
	c-4.8-3.8-8.9-3.3-11.9-1.6c-1.3,0.8-2.5,1.7-3.6,2.9c-0.7-4.5-1-7.4-1-7.4l7.4-1.5c0.9-1.5,2.4-2.7,4.1-3.1c6.5-1.2,9.8-63,9.8-63
	l-20-43.6v-2.1l6.8-10.8c11.2-9.8,14,4.2,14,4.2s2,38,2,39S185.1,457.3,185.1,457.3z"/>
<path class="st11" d="M183.1,455.1c0,0,0,22.5,0,32.5c0,1.3,0,2.7-0.1,4.1c-0.3,9-1.7,18.4-1.7,18.4c-14-19.8-23.9-1.4-23.9-1.4
	l-3.1-8.3c-1.2-1-2.2-2.2-3-3.6c-6.1-10.1-2.4-27.7-2.4-27.7c2.1-27.5,11.4-58.5,11.4-58.5v-26.2l6.8-10.8c11.2-9.8,16,4.2,16,4.2
	s0,38,0,39S183.1,455.1,183.1,455.1z"/>
<path class="st2" d="M183,490.7c-0.3,9-1.7,18.4-1.7,18.4c-14-19.8-23.9-1.4-23.9-1.4l-3.1-8.3c-1.2-1-2.2-2.2-3-3.6
	C157.8,492.1,172.2,485.5,183,490.7z"/>
<path class="st11" d="M183,491.7c-0.3,9-1.7,18.4-1.7,18.4c-14-19.8-23.9-1.4-23.9-1.4l-3.1-8.3c-1.2-1-2.2-2.2-3-3.6
	C157.8,493.1,172.2,486.5,183,491.7z"/>
<path class="st15" d="M183,491.7c-0.3,9-1.7,18.4-1.7,18.4c-14-19.8-23.9-1.4-23.9-1.4l-3.1-8.3c-1.2-1-2.2-2.2-3-3.6
	C157.8,493.1,172.2,486.5,183,491.7z"/>
<path class="st2" d="M164.1,424.1c0,0,4.5,24.8,9,32S164.1,424.1,164.1,424.1z"/>
<path class="st2" d="M152.5,466.1c0,0,2.8,15,8.5,16.8S152.5,466.1,152.5,466.1z"/>
<path class="st2" d="M307.4,519l4.1,0.9l-1.8,8.6c-0.7-0.9-1.4-1.7-2.2-2.5c-3.7-3.5-8.5-5.6-13.7-5.9c-2.2-0.1-4.5,0-6.6,0.4
	c1-3.4,1.6-6.9,1.9-10.4c0.2-1.3,0-2.7-0.6-3.9c-2-2.8-3-28.2-3-28.2s1.8-13,2.8-15.5s-4.5-15.3-4.2-19.1c0.2-3.9,3.2-37.1,3.2-38.9
	s6.5-36,20-23l5.2,7.2l0.3,1.9l-21.6,25.3c0,0,18.8,97.2,16.5,101.8C307.6,518.2,307.5,518.6,307.4,519z"/>
<path class="st11" d="M330,497.3c-4.1,4.1-12.6,17.5-14.9,21.3l-0.6,1l-2,10c0,0-7-12-23.2-9c1-3.4,1.6-6.9,1.9-10.4
	c0.2-1.3,0-2.7-0.6-3.9c-2-2.8-3-28.2-3-28.2s1.8-13,2.8-15.5s-4.5-15.3-4.2-19.1c0.2-3.9,3.2-37.1,3.2-38.9s6.5-36,20-23l5.2,7.2
	l4,22.8l7.8,39.5c0,0,2,15.5,3.8,17.8S334.8,492.6,330,497.3z"/>
<path class="st2" d="M315.1,517.6l-0.6,1l-2,10c0,0-7-12-23.2-9c1-3.4,1.6-6.9,1.9-10.4C296.7,509.6,307.9,511.1,315.1,517.6z"/>
<path class="st11" d="M315.1,518.6l-0.6,1l-2,10c0,0-7-12-23.2-9c1-3.4,1.6-6.9,1.9-10.4C296.7,510.6,307.9,512.1,315.1,518.6z"/>
<path class="st15" d="M315.1,518.6l-0.6,1l-2,10c0,0-7-12-23.2-9c1-3.4,1.6-6.9,1.9-10.4C296.7,510.6,307.9,512.1,315.1,518.6z"/>
<path class="st2" d="M298.8,448.3c0,0,17-0.2,19.5,8.6S298.8,448.3,298.8,448.3z"/>
<path class="st2" d="M295.5,473.3c0,0,28.8-1.2,27.5,11.2S295.5,473.3,295.5,473.3z"/>
<path class="st2" d="M297.3,492.6c0,0,2.2-0.5,3.8,4.8S297.3,492.6,297.3,492.6z"/>
<path class="st2" d="M239.1,614.8c0,0,6.9-2,10,0S239.1,614.8,239.1,614.8z"/>
<path class="st2" d="M240.3,622.1c0,0,16.2,0.2,17.7,2S240.3,622.1,240.3,622.1z"/>
<g class="st16">
	<path d="M205.7,312.8c0.5-8.2-3.5-16.2-4-24.3c-0.5,8.1,3.6,16.2,4,24.5C205.6,313,205.7,312.9,205.7,312.8z"/>
	<path d="M224.8,326.4c-2.1,4.1-4.4,8.4-3.8,12.9c0.4-3.4,2.2-6.8,3.8-9.9c1.8-3.6,3.6-7.4,3.5-11.5c0-0.4,0-0.9-0.1-1.3
		C227.8,320,226.3,323.3,224.8,326.4z"/>
	<path d="M297.9,308.1c0.7,0.3,1.4,0.8,2,1.3c0.5-1,0.6-2.2,0.3-3.4c0,0,0-0.1,0-0.1C299.9,307,299,307.8,297.9,308.1z"/>
	<path d="M221.1,360.7c-1.6,3.3-5.1,6.5-8.6,5.4c-0.4-5-1.1-10.5-5-13.5c-2.6-2-6.2-2.4-8.5-4.7c-1.4-1.4-2.3-3.3-2.5-5.3
		c0,0.2-0.1,0.3-0.1,0.5c-0.4,2.9,0.6,5.7,2.5,7.8c2.4,2.3,5.9,2.7,8.5,4.7c4,3,4.7,8.6,5,13.5c3.5,1.1,7-2.1,8.6-5.4
		c1.7-3.5,2.5-7.4,2.2-11.3C223.1,355.3,222.3,358.1,221.1,360.7z"/>
	<path d="M302.4,317.6c-0.7,3.7-3.4,6.8-6.6,8.8c-1.5,1-3.3,2-3.5,3.8c0,0.7,0.1,1.4,0.3,2c0.8-1.1,1.9-2.1,3.2-2.7
		c3.2-2,5.9-5.1,6.6-8.8c0.2-1.1,0.2-2.2,0-3.2C302.4,317.4,302.4,317.5,302.4,317.6z"/>
	<path d="M293.8,349.6c-0.9,3.2-3.1,6.7-6.4,6.5c-1.6-0.1-3-1-4.6-1.1c-2.2-0.2-4.3,1.2-5.7,3c-1.2,1.9-2.3,3.9-3.1,5.9
		c-2.5,4.8-7.3,9.1-12.6,8.3s-8.7-6.5-9.2-12.1c0,0.3-0.1,0.6-0.1,0.9c-0.2,6.2,3.2,13.3,9.3,14.2c5.3,0.8,10.1-3.5,12.6-8.3
		c0.9-2.1,1.9-4.1,3.1-5.9c1.4-1.8,3.5-3.2,5.7-3c1.6,0.1,3,1.1,4.6,1.1c3.3,0.2,5.5-3.4,6.4-6.5c0.8-2.8,1.1-5.7,0.9-8.7
		C294.5,345.9,294.3,347.7,293.8,349.6z"/>
	<path d="M260.5,277.6c2.5,3.5,3.9,7.7,4,12c0.3-5.4-0.8-10.8-4-15.1c-4.5-5.7-12-8.1-19-6c-2.9,0.9-5.7,2.8-7,5.6
		c-1.7,3.8-0.3,8.3-1.4,12.2c-1.3,4.5-5.7,7.5-7,12c-0.4,1.4-0.5,2.9-0.3,4.4c0.1-0.5,0.1-0.9,0.3-1.4c1.2-4.5,5.6-7.5,7-12
		c1.2-4-0.2-8.5,1.4-12.2c1.2-2.8,4-4.7,7-5.6C248.5,269.5,256,271.9,260.5,277.6z"/>
</g>
<g class="st6">
	<circle id="c40b9370-e8cf-4f46-b0aa-8f4512275a8b" class="st17" cx="567.9" cy="580.8" r="80.2"/>
	<path id="_x32_e22f7a4-7c1b-458a-b567-b65e93177032" class="st18" d="M544.3,544.5c3.2,0,6.4,0.3,9.5,0.9c2.6,0.5,5.1,1.5,7.3,3
		c2,1.4,3.7,3.3,4.7,5.5c1.2,2.7,1.8,5.6,1.7,8.6c0.1,3.2-0.8,6.4-2.5,9.2c-1.9,2.6-4.4,4.7-7.4,6c4,1,7.6,3.4,10,6.8
		c4,6.4,4.4,14.4,1.2,21.2c-1.4,2.6-3.3,4.9-5.8,6.6c-2.5,1.7-5.3,3-8.2,3.8c-3.1,0.8-6.3,1.2-9.5,1.2h-35.2v-72.7H544.3z
		 M542.3,573.9c2.5,0.1,4.9-0.6,7-2c1.8-1.3,2.8-3.5,2.8-6.6c0.1-1.4-0.3-2.9-0.9-4.2c-0.6-1-1.4-1.9-2.4-2.5
		c-1.1-0.6-2.3-1.1-3.5-1.3c-1.4-0.2-2.7-0.4-4.1-0.3h-15v17L542.3,573.9z M543.2,604.7c1.5,0,3-0.1,4.5-0.5
		c1.3-0.3,2.6-0.8,3.8-1.5c1.1-0.7,2-1.7,2.6-2.9c0.7-1.5,1-3.1,1-4.7c0-3.7-1-6.4-3.2-8c-2.4-1.7-5.4-2.5-8.3-2.4h-17.4v20
		L543.2,604.7z M591.1,603.2c2.2,2.1,5.3,3.2,9.4,3.2c2.7,0.1,5.3-0.7,7.6-2.2c1.8-1.1,3.1-2.7,3.9-4.6h12.7
		c-2,6.3-5.2,10.8-9.4,13.5c-4.6,2.8-9.9,4.3-15.3,4.1c-3.8,0.1-7.6-0.6-11.2-2c-3.2-1.2-6.1-3.2-8.5-5.7c-2.4-2.5-4.2-5.5-5.3-8.8
		c-1.3-3.6-1.9-7.4-1.9-11.2c0-3.8,0.6-7.5,1.9-11c2.4-6.6,7.5-11.9,14-14.7c3.5-1.5,7.2-2.2,11-2.1c4.1-0.1,8.1,0.8,11.7,2.6
		c3.2,1.7,6,4.1,8.2,7c2.2,3,3.8,6.4,4.6,10c1,3.8,1.3,7.8,1,11.7h-38C587.7,597.7,588.9,601.1,591.1,603.2L591.1,603.2z
		 M607.5,575.5c-1.7-1.9-4.4-2.8-7.9-2.8c-2-0.1-4,0.3-5.8,1.2c-1.4,0.7-2.7,1.7-3.7,2.9c-0.9,1.1-1.5,2.3-1.9,3.7
		c-0.3,1.1-0.6,2.3-0.7,3.5H611C610.4,580.2,609.2,577.4,607.5,575.5L607.5,575.5z M585,548.1h29.4v8.2H585V548.1z"/>
</g>
<g class="st6">
	<path class="st19" d="M930.3,627.8c0,0.8,0,1.5,0,2.3c-1.1,39.7-31.1,72.6-70.5,77.3c-3.2,0.4-6.4,0.6-9.7,0.6
		c-44.3,0-80.2-35.9-80.2-80.2c0-44.3,35.9-80.2,80.2-80.2C894.4,547.6,930.3,583.5,930.3,627.8
		C930.3,627.8,930.3,627.8,930.3,627.8L930.3,627.8z"/>
	<path class="st20" d="M930.2,630.1c-1.1,39.7-31.1,72.6-70.5,77.3l-65.5-48.7l8.2-53l32.4,2l18.4,15.4l13.1-21.3l22,18.3l11.8,8.5
		v-26.7l29.8,27.6C930,629.6,930.2,629.8,930.2,630.1z"/>
	<polygon class="st20" points="794.2,658.7 794.2,658.7 794.2,658.7 	"/>
	<path class="st18" d="M844.3,629.8c0-17-10.5-28.5-30.3-28.5h-19.7v57.2h20.1C833.7,658.5,844.3,646.8,844.3,629.8z M830.1,629.9
		c0,12.3-6.3,17.6-16.4,17.6h-5.2v-35.2h5.2C823.4,612.3,830.1,617.8,830.1,629.9z M900.8,658.5v-57.2h-13.2v32l-21.1-32h-13.8v57.2
		H866v-34.2l22.5,34.2L900.8,658.5L900.8,658.5z"/>
</g>
<linearGradient id="SVGID_2_" gradientUnits="userSpaceOnUse" x1="777.0866" y1="174.4334" x2="777.0866" y2="717.7905" gradientTransform="matrix(1 0 0 -1 -58.95 729.14)">
	<stop  offset="0" style="stop-color:#808080;stop-opacity:0.25"/>
	<stop  offset="0.54" style="stop-color:#808080;stop-opacity:0.12"/>
	<stop  offset="1" style="stop-color:#808080;stop-opacity:0.1"/>
</linearGradient>
<path class="st21" d="M870,542.5c-1-2-10.3-15.4-10.3-15.4l0,0l-0.3-1.2l-3.1-13.7l-0.2-1c2-0.5,3.4-1.1,3.9-1.9
	c2.2-3.8-1.9-8.5-1.9-8.5l-0.8-20.2l-2.2-49c0,0-4.6-16.4-5.2-20.2c-0.7-3.8-6.9-11.9-6.9-11.9s1.3-4-0.3-6.9s-5.4-16.2-5.4-16.2
	l-3.2-37l-1.5-36.4c1.5,0,3.1,0.1,4.6,0.4c0.2,0.2,0.1-0.3-0.2-1.1c0.1,0,0.2,0,0.2,0.1c0.5,0.4-0.9-2.7-2.4-5.9l-0.2-0.4
	c0.7-2.6,3.7-13.2,5.8-17c1.5-2.8-1.4-22.3-3.7-35.6c-0.2-1-0.3-1.9-0.5-2.7c3.7-6.4,7.9-13.7,7.9-13.7s10.7-30.4,15.1-43.7
	s0-47.5,0-47.5l0,0c0,0,0-1.7-0.2-4.3c-0.7-7.1-3.3-20.9-13.5-26.3C831.4,97.9,827,88.9,827,88.9s-17.3-15.8-19.5-10.5l-0.2-0.3
	c-1.3-2.6-2.2-5.4-2.8-8.3c-0.1-0.3-0.1-0.6-0.2-0.9c2.2-1.7,4.1-3.8,5.7-6.2c0,0.4-0.1,0.9-0.1,1.3l0,0c0,0.3,0,0.6,0,0.8v0.4
	c0,0.2,0,0.4,0,0.6c0,0.1,0,0.2,0,0.3c1.3,0.1,2.6-0.6,3.2-1.8c0.5-1.2,0.9-2.4,1.1-3.7c0.6-2.7,1.7-5.3,3.2-7.6
	c1.5-2.3,3.5-4.6,3.7-7.1c0-0.4,0-0.8,0-1.1c-0.1-1.3-0.8-2.6-0.9-3.9c-0.1-0.7-0.1-1.3,0-2l0,0c0-0.4,0.1-0.8,0.2-1.2
	s0.2-1,0.2-1.6s0.1-0.9,0.2-1.3V35c0.1-1.2,0.1-2.3,0-3.5c-0.2-2.2-1.4-4.1-3.2-5.2c-1-0.5-2.2-0.7-3.2-1.2c-2.6-1.3-3.5-4.6-5-7.1
	c-2.2-3.4-5.9-5.5-9.9-5.7c-4-0.2-7.9,1.6-11.8,1c-2.5-0.4-4.8-1.8-7.4-1.9c-3.7-0.3-7,2-10.1,4.2c-2.1,1.5-4.4,3.3-5.1,5.8
	c-0.6,2.1,0,4.4-1.2,6.2c-0.8,1.2-2.1,1.8-3,3c-0.7,0.9-1,2.1-1,3.2c0,0.1,0,0.2,0,0.3s0,0.4,0,0.5c0.1,0.8,0.2,1.6,0.3,2.3
	c0,0.1,0,0.2,0,0.2l0,0c0.3,2.1-0.4,3.6-1.1,5.7c-0.3,0.9-0.5,1.8-0.5,2.7c0,0,0,0.1,0,0.1s0,0.1,0,0.2c0,0.2,0,0.4,0,0.6l0,0
	c0.1,0.7,0.4,1.4,0.9,1.9c0.2-0.4,0.6-0.8,1-1c0,0.3,0,0.6,0,0.9v0.1c0,7.1,2.9,13.9,8,18.9c0,0.3-0.1,0.6-0.1,0.9
	c-0.4,3-1,6.3-1.7,9.5l-0.2,1h-5c0,0,0.8-3.7-7.5,0.8s-18.5,6.7-20,7.5s-20.3,15.4-20.3,15.4s-16.3,9.4-15.8,25.4l0,0l-1.9,18
	l-1.3,33.6c0,0-2.5,28.6,0,32.6s6.9,27.8,6.1,30.8c-0.6,2.2,5.5,17.5,9.8,26.4c-1.1,1.2-2.2,2.5-3.2,3.8c0,0-1.7,6.7-1.7,7.4
	c0,0,0,0.1,0.1,0.1c-3.8,3.8-9.7,10-9.7,11.4c0,2,1.2,3.8-0.7,3.6s-1.9,2.1-1.8,3.4s-2.3-0.7-2.1,1.8s-17.3,41.8-17.3,41.8
	s-8,19.2-11,22.4c-3,3.2-7.3,17.2-6.9,22.4s0.5,6.7-0.8,6.7s-4.1,4.7-4.1,4.7L638,440c0,0-3.9,12.7-5.1,12.5
	c-1.2-0.2-3.8,21.8-3.8,21.8s-2.9,6.5-3.4,6.5c-0.1,0,0.4,0.5,1.2,1.2l-0.6,0.5c-1.3,1.1-2.6,2.1-4,3c0,0-7.7-5.3-13-4.8
	s-16.1,1.8-21.5-2c-3-2.1-9.3-4-14.4-4.1c-4.1-0.1-7.3,1-7.6,4.1c-0.5,6.8,18.5,19.7,18.5,19.7s20,5.7,23.9,11s19.9,13.4,19.9,13.4
	s4.8-2.1,6.6-4.2l0,0c0.4-0.4,0.7-1,0.7-1.6c-0.3-2.5,6.6-12,6.6-12l1-4.7c0.5-2.3,1.1-5.2,1.7-7.7c0.1-0.3,0.2-0.7,0.2-1
	c0.8,0,1.6-0.1,2.3-0.4c6.8-2.7,7.5-10,7.5-10l10.1-21.2c0,0,4.4-12.2,5.8-14.4c1.3-2.2,11.8-24.1,11.8-24.1s1.9-9.4,3.6-12.2
	c1.7-2.8,1.9-9,1.9-9s3.5-9.4,7.3-13c2.7-2.9,5-6.1,6.9-9.5c0,0,15.4-24.3,25.9-31.1c0,0,25.2-30.8,26.8-33.5s6.3-9.7,12-3.3
	c5.7,6.3,11.8,14.6,11.8,14.6l10.3,28.1l11.5,36c0,0,5.4,8.7,5.1,10.5c-0.3,1.8,8.8,18.2,8.8,18.2s3.5,6,2.9,9s2.5,6,2.5,6l1,12.2
	c0,0,3.7,12,2.7,13.9s3.6,13.4,3.6,13.4s0,10.2,1.7,13.5s3.7,16.7,3.6,17.7s0,10.2,0,10.2s1.2,0,3.1-0.1l0.1,1l0.8,10.1l0.1,0.9
	c-0.9,0.7-1.5,1.8-1.5,2.9c0,2.7,0.4,10.7,0.7,17c0.1,1.7,0.2,3.2,0.2,4.5c0.1,1.8,1.7,3.2,3.5,3.1c0.1,0,0.1,0,0.2,0
	c4.8-0.6,9.7-0.4,14.5,0.5c5.3,1.2,10.7,1.6,16.1,1.2c0,0,0.4-3.8,0.4-7.2C870.5,545.2,870.4,543.2,870,542.5z"/>
<polygon class="st22" points="857,527.6 834.2,527.6 834,524.9 833.2,514.8 832.5,507.2 852.5,507.2 853.8,512.8 856.8,526.4 "/>
<path class="st22" d="M647.2,487.2c-0.4,0.4-1.1,3-1.9,6c-1.3,5.4-2.6,12.3-2.6,12.3l-0.8,0.2L624,510c0,0-9.3-21.3-5-21.8
	c1.5-0.3,3-1,4.2-1.9c1.4-0.9,2.8-2,4.1-3.1c2.4-2,4.2-3.9,4.2-3.9S648.4,486,647.2,487.2z"/>
<path class="st2" d="M647.2,487.2c-0.4,0.4-1.1,3-1.9,6c-6.2-0.4-15.5-7.7-18-10c2.4-2,4.2-3.9,4.2-3.9S648.4,486,647.2,487.2z"/>
<path class="st2" d="M853.7,512.8c-5.5,1.5-15.5,1.9-20.6,2.1l-0.6-7.6h20L853.7,512.8z"/>
<path class="st23" d="M708.7,278.9c0,0-12.5,12.3-12.5,14.3s1.2,3.7-0.7,3.6c-1.8-0.1-1.9,2-1.8,3.4s-2.2-0.7-2.1,1.8
	s-17,41.7-17,41.7s-7.8,19.2-10.8,22.3s-7.2,17.2-6.8,22.3s0.5,6.7-0.8,6.7s-4,4.7-4,4.7l-13.2,41c0,0-3.8,12.7-5,12.5
	c-1.2-0.2-4,21.8-4,21.8s-2.8,6.5-3.3,6.5s14.5,13,21.2,10.3s7.3-10,7.3-10l10-21c0,0,4.3-12.2,5.7-14.3s11.7-24,11.7-24
	s1.8-9.3,3.5-12.2s1.8-9,1.8-9s3.5-9.3,7.2-13c2.6-2.9,4.9-6.1,6.8-9.5c0,0,15.2-24.2,25.5-31c0,0,24.8-30.7,26.3-33.3
	s6.2-9.7,11.8-3.3s11.7,14.5,11.7,14.5l10.2,28l11.3,35.8c0,0,5.3,8.7,5,10.5c-0.3,1.8,8.7,18.2,8.7,18.2s3.5,6,2.8,9s2.5,6,2.5,6
	l1,12.2c0,0,3.7,12,2.7,13.8s3.5,13.3,3.5,13.3s0,10.2,1.7,13.5s3.7,16.7,3.5,17.7s0,10.2,0,10.2s25.2-0.2,27.3-4s-1.8-8.5-1.8-8.5
	l-0.8-20.2l-2.2-48.8c0,0-4.5-16.3-5.2-20.2s-6.8-11.8-6.8-11.8s1.3-4-0.3-6.8c-1.7-2.8-5.3-16.2-5.3-16.2l-3.2-36.8l-1.6-40.2
	L708.7,278.9z"/>
<path class="st2" d="M834.7,304.7c-1-0.8-42-1.2-42.5-1.2s-16-6.2-16-6.2s-34.5-5.7-39.8-3.2s-21.8-4.7-21.8-4.7v-3.2
	c0,0-8.8-3-8.8-3.7c0-0.7,1.7-7.3,1.7-7.3l1-0.4l3.8-1.3l117.2,18.8c0,0,1.5,3.2,3,6.3C833.8,301.9,835.2,305.1,834.7,304.7z"/>
<path class="st24" d="M834.7,303.7c-1-0.8-42-1.2-42.5-1.2s-16-6.2-16-6.2s-34.5-5.7-39.8-3.2s-21.8-4.7-21.8-4.7v-3.2
	c0,0-8.8-3-8.8-3.7c0-0.7,1.7-7.3,1.7-7.3l1-0.4l3.8-1.3l117.2,18.8c0,0,1.5,3.2,3,6.3C833.8,300.9,835.2,304.1,834.7,303.7z"/>
<path class="st2" d="M643.6,499.8l-1,4.7c0,0-0.3,0.5-0.8,1.2L624,510c0,0-9.3-21.3-5-21.8c1.5-0.3,3-1,4.2-1.9
	c-0.9,6.7,4.3,13.7,4.3,13.7C634.9,505.5,643.6,499.8,643.6,499.8z"/>
<path class="st12" d="M643.6,500.9l-1,4.7c0,0-6.8,9.5-6.5,12c0,0.6-0.2,1.2-0.7,1.6l0,0c-1.8,2.1-6.5,4.2-6.5,4.2
	s-15.7-8-19.5-13.3s-23.5-11-23.5-11s-18.7-12.8-18.2-19.7c0.2-3,3.5-4.1,7.5-4.1c5,0.1,11.2,1.9,14.2,4.1c5.3,3.8,16,2.5,21.2,2
	s12.8,4.8,12.8,4.8c-1.7,7,4.1,14.8,4.1,14.8C634.9,506.6,643.6,500.9,643.6,500.9z"/>
<path class="st24" d="M635.5,519.1L635.5,519.1c-1.8,2.1-6.5,4.2-6.5,4.2s-15.7-8-19.5-13.3S586,499,586,499s-18.7-12.8-18.2-19.7
	c0.2-3,3.5-4.1,7.5-4.1c3,5,7.4,12,10.7,13.9c5.3,3.2,15.8,9.2,15.8,9.2s16.7,10.5,17.8,11.7C620.6,511,630.3,517.4,635.5,519.1z"/>
<path class="st2" d="M857,527.5h-22.9l-0.2-2.7c2.9-2.7,9-4,9-4c4.3-1.3,12.2,4.3,13.7,5.5L857,527.5z"/>
<path class="st12" d="M867.6,547.8c-0.1,3.4-0.4,7.1-0.4,7.1c-5.3,0.4-10.6,0-15.8-1.2c-4.7-1-9.5-1.1-14.2-0.5
	c-1.8,0.2-3.4-1.1-3.6-2.9c0-0.1,0-0.1,0-0.2c-0.1-1.3-0.2-2.8-0.2-4.5c-0.3-6.2-0.7-14.2-0.7-16.9c0-4.7,10.5-6.8,10.5-6.8
	c4.8-1.5,14,5.7,14,5.7s9.2,13.3,10.2,15.3C867.6,543.7,867.7,545.6,867.6,547.8z"/>
<path class="st24" d="M867.6,547.8c-0.1,3.4-0.4,7.1-0.4,7.1c-5.3,0.4-10.6,0-15.8-1.2c-4.7-1-9.5-1.1-14.2-0.5
	c-1.8,0.2-3.4-1.1-3.6-2.9c0-0.1,0-0.1,0-0.2c-0.1-1.3-0.2-2.8-0.2-4.5c3.8-0.6,9.5-1.1,13.4-0.2
	C851.3,546.5,861.8,547.3,867.6,547.8z"/>
<path class="st2" d="M639.9,447.6c0,0-3.5,6,0,8.8S639.9,447.6,639.9,447.6z"/>
<path class="st2" d="M827.9,470.9c1,2,3.7,5,3.2,8.5S827.9,470.9,827.9,470.9z"/>
<path class="st22" d="M824.9,105.2c0,0-15.3-1.6-31.1-3.6l-0.7-0.1c-18.4-2.4-37.2-5.6-33.6-7.9c1.6-1,3-3.5,4.1-6.7
	c0.7-2,1.3-4.1,1.8-6.2l0,0c0.1-0.3,0.2-0.7,0.2-1c0.7-3.1,1.2-6.4,1.7-9.4c0.8-6.1,1.2-10.9,1.2-10.9s39.2-14.8,34.3,3.7
	c-0.7,3-0.8,6.1-0.1,9.1c0.6,2.9,1.5,5.7,2.8,8.3C811.8,93.6,824.9,105.2,824.9,105.2z"/>
<path class="st2" d="M802.9,62.9c-0.7,3-0.8,6.1-0.1,9.1c-10.5,8.5-25.8,7.8-35.4-1.8c0.8-6.1,1.2-10.9,1.2-10.9
	S807.7,44.4,802.9,62.9z"/>
<path class="st22" d="M812.5,50.4c0,14.6-11.8,26.5-26.5,26.5c-14.6,0-26.5-11.8-26.5-26.5l0,0v-0.1c0-14.6,11.9-26.5,26.5-26.5
	S812.5,35.7,812.5,50.4z"/>
<path class="st2" d="M794.1,100.5c-0.1,0.4-0.2,0.7-0.3,1.1l-0.7-0.1c-18.4-2.4-37.2-5.6-33.6-7.9c1.6-1,3-3.5,4.1-6.7
	c0.7-2,1.3-4.1,1.8-6.2l0,0c0.1-0.3,0.2-0.7,0.2-1h0.8c0.1,0.4,2,13.2,19.2,15.4l0.6,0.1C792.9,95.8,794.6,98,794.1,100.5z"/>
<path class="st24" d="M793.1,101.5c-0.8,4.1-7.9,9.1-7.9,9.1l-19.7-3.7c0,0-12.3-11-12.3-11.3s7.3-15,7.3-15h4.9
	c0.1,0.4,2,13.2,19.2,15.4l0.6,0.1C791.9,96.8,793.6,99,793.1,101.5z"/>
<path class="st2" d="M824.9,105.2c0,0-15.7-1.6-31.8-3.7c-0.8,4.1-7.9,9.1-7.9,9.1l-19.7-3.7c0,0-12.3-11-12.3-11.3s7.3-15,7.3-15
	h0.2c0.6,2.2,1.6,4.3,2.9,6.3c3.1,4.7,9,9.9,20,9.2l0.9-0.1c16.5-1.4,20.2-12.8,20.9-15.7C811.8,93.6,824.9,105.2,824.9,105.2z"/>
<path class="st2" d="M832.3,297.8L832,299c-4-3-33.2-5-33.2-5s-7.7-0.9-15-2.1c-5.3-0.8-10.5-1.8-12.3-2.8c-0.4-0.2-0.9-0.4-1.3-0.5
	c-6.6-2.1-27-4.5-27-4.5s-10,4.5-15.3,2.5s-20.5-11.3-20.5-11.3s0.3-0.5,1-1.4l3.8-1.3l117.2,18.8
	C829.3,291.5,830.9,294.7,832.3,297.8z"/>
<path class="st12" d="M834.2,245.1c2.2,13.3,5.1,32.6,3.6,35.5c-2.3,4.3-5.8,17.5-5.8,17.5c-4-3-33.2-5-33.2-5s-7.7-0.9-15-2.1
	c-5.3-0.8-10.5-1.8-12.3-2.8c-0.4-0.2-0.9-0.4-1.3-0.5c-6.6-2.1-27-4.5-27-4.5s-10,4.5-15.3,2.5s-20.5-11.3-20.5-11.3
	c2.2-3,4.7-5.7,7.5-8.2c5.2-4.7,14.7-44.8,14.4-45.3s-2.6-13.3-1.9-20.8s-2-44.2-2-44.2s-26.8-10.4-27.3-26.4s15.5-25.3,15.5-25.3
	s18.5-14.5,20-15.3s11.5-3,19.7-7.5s7.3-0.8,7.3-0.8s3.3,17.7,23.2,16.5s22-16.5,22-16.5c2.1-5.3,19.2,10.5,19.2,10.5s4.3,9,18,16.3
	c10,5.4,12.6,19.2,13.3,26.2c0.2,2.6,0.2,4.3,0.2,4.3l-40.2,28.8l15.8,65.8C832,232.6,833,237.9,834.2,245.1z"/>
<path class="st22" d="M734.9,279.4c0,0,13.2,22.7,26.8,16.3c3.1-1.4,5.6-3.7,7.3-6.7c5.4-9.3,0-21.2-10.4-24c-3.8-1-8-1.6-11.4-1
	C737.7,265.7,734.9,279.4,734.9,279.4z"/>
<path class="st2" d="M734.9,279.4c0,0,13.2,22.7,26.8,16.3c3.1-1.4,5.6-3.7,7.3-6.7c5.4-9.3,0-21.2-10.4-24c-3.8-1-8-1.6-11.4-1
	C737.7,265.7,734.9,279.4,734.9,279.4z"/>
<path class="st2" d="M715.5,113.9c0,0,10.4,7,10.6,18L715.5,113.9z"/>
<path class="st2" d="M731.9,119.2c0,0.7-3,47,2.3,62.8S731.9,119.2,731.9,119.2z"/>
<path class="st2" d="M812.5,50.4c0,5.1-1.5,10.2-4.3,14.5c0-0.3,0-0.7,0-1c-0.2-2.8-1.6-5.3-3.1-7.7c-1-1.9-2.3-3.6-4-4.9
	c-0.5-0.3-0.9-0.6-1.3-1c-0.9-1-0.8-2.6-1-4c-0.5-3.8-3.4-6.8-7.2-7.5c-0.8-0.2-1.6-0.1-2.2,0.3c-0.7,0.5-1,1.4-1.6,1.9
	c-0.9,0.8-2.3,0.7-3.5,0.5c-2.6-0.5-5.3-1.5-7.9-0.6c-4.4,1.4-6,7.5-10.5,8.6c-1.3,0.2-2.7,0.3-4,0.3c-0.9,0.1-1.7,0.3-2.4,0.8v-0.1
	c0-14.6,11.9-26.5,26.5-26.5S812.5,35.7,812.5,50.4L812.5,50.4z"/>
<path class="st25" d="M759.8,32.8c0.8-1.1,2.2-1.8,2.9-2.9c1.1-1.8,0.6-4.2,1.1-6.2c0.7-2.5,2.9-4.2,5-5.8c3-2.2,6.2-4.4,9.9-4.2
	c2.5,0.2,4.8,1.5,7.2,1.9c3.9,0.6,7.8-1.1,11.7-1c4,0.2,7.6,2.3,9.7,5.7c1.5,2.5,2.4,5.7,5,7c1,0.5,2.1,0.7,3.1,1.2
	c1.8,1.1,3,3.1,3.2,5.2c0.1,2.1,0,4.2-0.4,6.3c-0.2,1-0.2,2.1-0.1,3.2c0.2,1.3,0.8,2.5,0.9,3.8c0.3,3-2,5.6-3.7,8.2
	c-1.5,2.3-2.5,4.9-3.1,7.5c-0.2,1.3-0.5,2.5-1.1,3.6c-0.6,1.2-1.8,1.9-3.1,1.8c-0.2-1.8,0.3-3.6,0.1-5.5c-0.2-2.8-1.6-5.3-3.1-7.7
	c-1-1.9-2.3-3.6-4-4.9c-0.5-0.3-0.9-0.6-1.3-1c-0.9-1-0.8-2.6-1-4c-0.5-3.8-3.4-6.8-7.2-7.5c-0.8-0.2-1.6-0.1-2.2,0.3
	c-0.7,0.5-1,1.4-1.6,1.9c-0.9,0.8-2.3,0.7-3.5,0.5c-2.6-0.5-5.3-1.5-7.9-0.6c-4.4,1.4-6,7.5-10.5,8.6c-1.3,0.2-2.7,0.3-4,0.3
	c-1.4,0-2.7,0.7-3.4,1.8c-1.3-1.4-1.1-3.7-0.4-5.5c0.8-2.1,1.5-3.6,1.1-5.9S758.3,34.7,759.8,32.8z"/>
<path class="st2" d="M662.4,396.4c0,0-9.5,5-4.5,6S662.4,396.4,662.4,396.4z"/>
<path class="st2" d="M818.9,408.4c0,0,5.2-7,11-2.8S818.9,408.4,818.9,408.4z"/>
<path class="st2" d="M831.1,412.9c0,0,6.5-2.2,10.5,0H831.1z"/>
<path class="st2" d="M701.7,299.4c0,0,14,13.5,18.5,14S701.7,299.4,701.7,299.4z"/>
<path class="st2" d="M703.7,121.9l-3.6,7.7l-1.8,18l-1.3,33.5c0,0-2.5,28.5,0,32.5s6.8,27.7,6,30.7s11,31,13.2,32.7s9.8,2,14.2,1.2
	l7.9,7.5l22.4-20.7l-13.8-10.5c0,0,3.2-5.3-5.7-11.2c0,0-4-6.7-4.2-10.2c-0.2-7.1-1.4-14.2-3.7-21c-3.2-9.3-5-61.2-5-61.2
	S720.7,113.1,703.7,121.9z"/>
<path class="st12" d="M701.7,121.9l-3.6,7.7l-1.8,18l-1.3,33.5c0,0-2.5,28.5,0,32.5s6.8,27.7,6,30.7s11,31,13.2,32.7s9.8,2,14.2,1.2
	l7.9,7.5l22.4-20.7l-13.8-10.5c0,0,3.2-5.3-5.7-11.2c0,0-4-6.7-4.2-10.2c-0.2-7.1-1.4-14.2-3.7-21c-3.2-9.3-5-61.2-5-61.2
	S718.7,113.1,701.7,121.9z"/>
<path class="st2" d="M736.5,247.2c-1,0.5-21.2,19.2-13.7,19.7S736.5,247.2,736.5,247.2z"/>
<path class="st22" d="M762.2,269.7c0,0-28.8,3-27.3,14.7c1.5,11.7,22,22.9,28.5,19.4c6.5-3.5,12-6.9,12-6.9L762.2,269.7z"/>
<path class="st2" d="M850.2,129.9l4.2,8c0,0,4.3,34.2,0,47.3s-14.8,43.5-14.8,43.5s-12.7,22.2-13,23.2s-24.3,35.7-28.7,37.5
	c-4.3,1.8-12.5,0.9-13-1.1c-0.5-2-11.5,8.6-11.5,8.6s-21.2-25.6-17.8-28.3c3.4-2.7,13.6-3.3,13.6-3.3s0.8,2.5,1.6-2.7
	c0.8-5.2,4.7-7.8,7.5-7.5s1.7-2.7,2.2-5.8s8.3-8.8,8.3-8.8s3.8-6.2,3.8-9.8s8-6.8,8.7-6.8s0.5-1.5,0.5-6.8s4-14.8,4-14.8l2.5-30
	l4.3-30.5C812.5,141.6,824.4,104.4,850.2,129.9z"/>
<path class="st2" d="M832,232.6c0,0,1,5.4,2.2,12.5c-2,3.6-3.6,6.5-3.7,6.8c-0.3,1-24.3,35.7-28.7,37.5c-4.3,1.8-12.5,0.9-13-1.1
	c-0.2-0.9-2.5,0.7-5,2.7c-3.1,2.6-6.5,5.9-6.5,5.9s-3.4-4.1-7.2-9.1c-5.8-7.6-12.7-17.5-10.7-19.2c3.4-2.7,13.6-3.3,13.6-3.3
	s0.8,2.5,1.6-2.7c0.8-5.2,4.7-7.8,7.5-7.5s1.7-2.7,2.2-5.8s8.3-8.8,8.3-8.8s3.8-6.2,3.8-9.8s8-6.8,8.7-6.8s0.5-1.5,0.5-6.8
	s4-14.8,4-14.8l2.5-30l4.3-30.5c0,0,11.8-37.2,37.7-11.7l1.9,3.7c0.2,2.6,0.2,4.3,0.2,4.3l-40.2,28.8L832,232.6z"/>
<path class="st12" d="M852.2,129.9l4.2,8c0,0,4.3,34.2,0,47.3s-14.8,43.5-14.8,43.5s-12.7,22.2-13,23.2s-24.3,35.7-28.7,37.5
	c-4.3,1.8-12.5,0.9-13-1.1c-0.5-2-11.5,8.6-11.5,8.6s-21.2-25.6-17.8-28.3c3.4-2.7,13.6-3.3,13.6-3.3s0.8,2.5,1.6-2.7
	c0.8-5.2,4.7-7.8,7.5-7.5s1.7-2.7,2.2-5.8s8.3-8.8,8.3-8.8s3.8-6.2,3.8-9.8s8-6.8,8.7-6.8s0.5-1.5,0.5-6.8s4-14.8,4-14.8l2.5-30
	l4.3-30.5C814.5,141.6,826.4,104.4,852.2,129.9z"/>
<path class="st2" d="M777.9,263.8c0,0,1,2.2,5.5,3.1S777.9,263.8,777.9,263.8z"/>
<path class="st2" d="M831.7,130.1c-0.2,0.5-15,17.3-12,21.6S831.7,130.1,831.7,130.1z"/>
<path class="st2" d="M814.9,207.1c0,0,8.5,8.3,6.8,12.3S814.9,207.1,814.9,207.1z"/>
<path class="st2" d="M816.2,191.2c0.5,0.8,18.8,3,19.8,10C837,208.2,816.2,191.2,816.2,191.2z"/>
<g class="st16">
	<path d="M818,41.3c0-0.4,0.1-0.8,0.2-1.2c0.4-1.9,0.5-3.8,0.5-5.8c-0.1,1.3-0.3,2.5-0.5,3.8C818,39.2,818,40.3,818,41.3z"/>
	<path d="M759.2,39.4c0.1-0.7,0.1-1.5,0-2.2c-0.1-0.7-0.2-1.4-0.3-2.1c-0.1,1.4,0,2.8,0.3,4.1V39.4z"/>
	<path d="M818.9,46.8c-0.4,2.4-2.2,4.5-3.6,6.6c-1.5,2.3-2.5,4.9-3.1,7.5c-0.2,1.3-0.5,2.5-1.1,3.6c-0.6,1.2-1.8,1.9-3.1,1.8
		c0,0,0-0.1,0-0.1c-0.1,0.7-0.1,1.4,0,2.1c1.3,0.1,2.5-0.6,3.1-1.8c0.5-1.2,0.9-2.4,1.1-3.6c0.6-2.7,1.6-5.2,3.1-7.5
		c1.7-2.6,4-5.2,3.7-8.2C819,47,819,46.9,818.9,46.8z"/>
	<path d="M808.2,60.9c-0.2-2.8-1.6-5.3-3.1-7.7c-1-1.9-2.3-3.6-4-5c-0.5-0.3-0.9-0.6-1.3-1c-0.9-1-0.8-2.6-1-4
		c-0.5-3.8-3.4-6.8-7.2-7.5c-0.8-0.2-1.6-0.1-2.2,0.3c-0.7,0.5-1,1.4-1.6,1.9c-1,0.7-2.3,0.9-3.5,0.5c-2.6-0.5-5.3-1.5-7.9-0.6
		c-4.4,1.4-6,7.5-10.5,8.6c-1.3,0.2-2.7,0.3-4,0.3c-1.4,0-2.6,0.7-3.4,1.8c-0.5-0.5-0.8-1.1-0.9-1.8c-0.3,1.3,0,2.7,0.9,3.8
		c0.8-1.1,2.1-1.8,3.4-1.8c1.3,0,2.7-0.1,4-0.3c4.5-1.1,6.1-7.2,10.5-8.6c2.5-0.8,5.3,0.1,7.9,0.6c1.2,0.4,2.4,0.2,3.5-0.5
		c0.6-0.6,0.9-1.4,1.6-1.9c0.7-0.4,1.5-0.5,2.2-0.3c3.8,0.7,6.6,3.7,7.2,7.5c0.2,1.4,0.1,2.9,1,4c0.4,0.4,0.9,0.7,1.3,1
		c1.7,1.4,3,3.1,4,5c1.4,2.3,2.8,4.8,3,7.5C808.2,62,808.2,61.5,808.2,60.9z"/>
</g>
<path class="st26" d="M479.5,146.8v104.9c0,0.9,0.7,1.7,1.6,1.7c0,0,0,0,0.1,0c28.9-0.9,53-24.8,53-54.1s-24.1-53.2-53-54.1
	C480.3,145.1,479.6,145.9,479.5,146.8C479.5,146.8,479.5,146.8,479.5,146.8z"/>
<path class="st27" d="M407.4,290.1v-86.9c-0.1-13.9,4.3-27.4,12.7-38.5c7.9-10.3,20.1-19.7,38.6-19.6c1,0,1.9,0.8,1.9,1.9
	c0,0,0,0,0,0v89.4c0,0,3,48.9-52.2,54.6C407.9,291.1,407.4,290.7,407.4,290.1C407.4,290.1,407.4,290.1,407.4,290.1z"/>
<circle class="st0" cx="180" cy="103.9" r="31.5"/>
<circle class="st0" cx="114" cy="28.9" r="19.5"/>
<circle class="st0" cx="12" cy="72.4" r="12"/>
<path class="st1" d="M409.9,671.9c-1,1.3-1.7,2.8-2.3,4.3c-0.1,0.4-0.3,0.8-0.4,1.2c-0.3-0.1-0.5-0.2-0.8-0.3
	c-1.2-0.3-2.4-0.4-3.6-0.3c0-0.5,0.1-1,0.1-1.5c0.1-5.3-0.5-12.6-5.5-9.5c-4.8,3-1.4,8,1.7,11.2l0.8,0.8c-2.8,2-3.4,6.7-3.9,11.6
	s-4.6,10.3-7.4,13.3c-0.3,0.3-0.5,0.6-0.8,0.8c-2.3-1.8-5.2-2.6-8-2.1c-0.1-0.4-0.2-0.9-0.4-1.4c-2.2-8.1-6.9-22.1-12.8-25.1l0.8-1
	c2.5-3.3,5.4-8.2,1.2-9.5s-4.6,4.2-4.3,8.4c0,0.5,0.1,1,0.1,1.5c-1.7,0.1-3.3,0.9-4.4,2.1l-0.6-0.8c-3.4-4-9.6-10.4-11.5-5.6
	c-1.8,4.5,3.7,10.3,7.6,13.7l0.2,0.2c-2.6,10.5,8.7,19.1,14.8,22.8l0.8,0.5c-8.4,9.9-13.6,28.5-13.6,28.5l23.5,4.2
	c0,0,15.6-13.5,13.6-26.1h0.2c15.6-3.1,19.1-19.7,16.7-29.6c0.1,0,0.2-0.1,0.3-0.1c2.8-1.2,5.3-3,7.2-5.5
	C423.5,672.8,414.3,666,409.9,671.9z"/>
<path class="st2" d="M409.9,671.9c-1,1.3-1.7,2.8-2.3,4.3c-0.1,0.4-0.3,0.8-0.4,1.2c-0.3-0.1-0.5-0.2-0.8-0.3
	c-1.2-0.3-2.4-0.4-3.6-0.3c0-0.5,0.1-1,0.1-1.5c0.1-5.3-0.5-12.6-5.5-9.5c-4.8,3-1.4,8,1.7,11.2l0.8,0.8c-2.8,2-3.4,6.7-3.9,11.6
	s-4.6,10.3-7.4,13.3c-0.3,0.3-0.5,0.6-0.8,0.8c-2.3-1.8-5.2-2.6-8-2.1c-0.1-0.4-0.2-0.9-0.4-1.4c-2.2-8.1-6.9-22.1-12.8-25.1l0.8-1
	c2.5-3.3,5.4-8.2,1.2-9.5s-4.6,4.2-4.3,8.4c0,0.5,0.1,1,0.1,1.5c-1.7,0.1-3.3,0.9-4.4,2.1l-0.6-0.8c-3.4-4-9.6-10.4-11.5-5.6
	c-1.8,4.5,3.7,10.3,7.6,13.7l0.2,0.2c-2.6,10.5,8.7,19.1,14.8,22.8l0.8,0.5c-8.4,9.9-13.6,28.5-13.6,28.5l23.5,4.2
	c0,0,15.6-13.5,13.6-26.1h0.2c15.6-3.1,19.1-19.7,16.7-29.6c0.1,0,0.2-0.1,0.3-0.1c2.8-1.2,5.3-3,7.2-5.5
	C423.5,672.8,414.3,666,409.9,671.9z"/>
<path class="st1" d="M363,678.7l-2.8,8c0,0-1.5-1.1-3.5-2.8c-3.9-3.4-9.3-9.2-7.6-13.7c1.9-4.8,8.1,1.5,11.5,5.6
	C362.1,677.5,363,678.7,363,678.7z"/>
<path class="st1" d="M368.8,674.1c-0.8,1.1-1.7,2.1-2.7,3.2c-0.2-1.4-0.4-2.8-0.5-4.2c-0.2-4.1,0.2-9.6,4.3-8.4
	S371.4,670.8,368.8,674.1z"/>
<path class="st1" d="M404.3,675.4c-0.1,2.7-0.3,4.8-0.3,4.8c-1.2-0.9-2.4-1.9-3.4-3c-3.1-3.2-6.5-8.2-1.7-11.2
	C403.8,662.8,404.5,670.1,404.3,675.4z"/>
<path class="st1" d="M420.6,678.9c-1.9,2.4-4.4,4.3-7.2,5.5c-0.8,0.3-1.6,0.6-2.4,0.9l-3.2-4.5c0.3-1.5,0.8-3,1.3-4.4
	c0.6-1.5,1.3-3,2.3-4.3C415.8,666,424.9,672.8,420.6,678.9z"/>
<path class="st2" d="M360.8,675.9c1.4,1.6,2.3,2.8,2.3,2.8l-2.8,8c0,0-1.5-1.1-3.5-2.8c0.4-2.6,1.5-5,3.1-7.1
	C360.2,676.5,360.5,676.2,360.8,675.9z"/>
<path class="st2" d="M368.8,674.1c-0.8,1.1-1.7,2.1-2.7,3.2c-0.2-1.4-0.4-2.8-0.5-4.2C366.8,673.1,367.9,673.5,368.8,674.1z"/>
<path class="st1" d="M382.4,706.1l-6.9,3c0,0-1.5-0.7-3.6-2c-7.2-4.4-21.6-15.6-12-28.7s17.8,10.4,21,21.9
	C381.9,703.7,382.4,706.1,382.4,706.1z"/>
<path class="st2" d="M400.5,677.1c1-1,2.3-1.6,3.8-1.7c-0.1,2.7-0.3,4.8-0.3,4.8C402.8,679.3,401.6,678.2,400.5,677.1z"/>
<path class="st2" d="M413.3,684.3c-0.8,0.3-1.6,0.6-2.4,0.9l-3.2-4.5c0.3-1.5,0.8-3,1.3-4.4C411.1,677.5,412.7,680.5,413.3,684.3z"
	/>
<path class="st1" d="M396.4,714l-1.1,0.2c-22.9,3.5-7.6-8.9-7.6-8.9s1-1,2.4-2.5c2.8-3,6.9-8.4,7.4-13.3c0.7-7.4,1.5-14.4,10.3-12.3
	C416.4,679.1,418,709.7,396.4,714z"/>
<rect x="352.1" y="771.1" class="st28" width="43.8" height="11.5"/>
<rect x="345.2" y="733.7" class="st28" width="57.2" height="40.2"/>
<rect x="352.1" y="771.1" class="st2" width="43.8" height="11.5"/>
<rect x="345.2" y="733.7" class="st2" width="57.2" height="40.2"/>
<rect x="355" y="771.1" class="st28" width="43.8" height="11.5"/>
<path class="st2" d="M380.9,700.3c1,3.4,1.5,5.8,1.5,5.8l-6.9,3c0,0-1.5-0.7-3.6-2C374.6,703.6,377.6,701.1,380.9,700.3z"/>
<path class="st2" d="M396.4,714l-1.1,0.2c-22.9,3.5-7.6-8.9-7.6-8.9s1-1,2.4-2.5C394.4,706.3,396.1,710.1,396.4,714z"/>
<path class="st1" d="M359,736c0,0,12.8-46,30.9-31.8s-7.3,36-7.3,36L359,736z"/>
<circle class="st2" cx="365.6" cy="685.6" r="1.4"/>
<circle class="st2" cx="365.5" cy="692.3" r="1.4"/>
<circle class="st2" cx="407.2" cy="686.9" r="1.4"/>
<circle class="st2" cx="373.6" cy="721.3" r="1.4"/>
<circle class="st2" cx="404.2" cy="698" r="1.4"/>
<circle class="st2" cx="389.3" cy="712.9" r="1.4"/>
<circle class="st2" cx="370.5" cy="688.4" r="1.4"/>
<circle class="st2" cx="403.3" cy="691.2" r="1.4"/>
<circle class="st2" cx="398.3" cy="702.4" r="1.4"/>
<circle class="st2" cx="383.2" cy="720.2" r="1.4"/>
<circle class="st2" cx="380.1" cy="713.2" r="1.4"/>
<circle class="st2" cx="372.7" cy="697.2" r="1.4"/>
<rect x="355" y="771.1" class="st2" width="43.8" height="4.2"/>
<rect x="348.1" y="733.7" class="st28" width="57.2" height="40.2"/>
<circle class="st2" cx="385.1" cy="726.7" r="1.4"/>
<circle class="st2" cx="376.5" cy="728.5" r="1.4"/>
</svg>
